<?xml version="1.0" standalone="no"?>
<!DOCTYPE svg PUBLIC "-//W3C//DTD SVG 20010904//EN"
 "http://www.w3.org/TR/2001/REC-SVG-20010904/DTD/svg10.dtd">
<svg version="1.0" xmlns="http://www.w3.org/2000/svg"
 width="1666.000000pt" height="1666.000000pt" viewBox="0 0 1666.000000 1666.000000"
 preserveAspectRatio="xMidYMid meet">
<metadata>
Created by potrace 1.14, written by Peter Selinger 2001-2017
</metadata>
<g transform="translate(0.000000,1666.000000) scale(0.100000,-0.100000)"
fill="#000000" stroke="none">
<path d="M7802 14283 c-6 -2 -10 -9 -7 -13 3 -5 1 -11 -5 -15 -5 -3 -10 -1
-10 6 0 8 -3 9 -13 0 -8 -6 -17 -8 -20 -4 -4 3 -7 1 -7 -6 0 -9 -5 -9 -21 0
-15 7 -19 8 -15 0 5 -7 -3 -10 -24 -7 -17 2 -33 0 -36 -5 -2 -4 -12 -5 -21 -2
-11 5 -14 3 -8 -6 6 -10 3 -11 -14 -2 -15 8 -21 9 -21 1 0 -6 -4 -9 -9 -6 -5
4 -12 0 -14 -6 -4 -10 -6 -9 -6 1 -1 11 -4 11 -16 1 -9 -7 -37 -14 -63 -15
-26 -2 -48 -4 -49 -5 -2 -1 -6 -3 -10 -4 -5 -1 -13 -5 -20 -9 -6 -4 -14 -3
-18 3 -3 5 -11 10 -16 10 -6 0 -8 -4 -5 -9 3 -5 -3 -11 -14 -14 -13 -3 -18 -1
-13 6 3 7 -4 3 -17 -8 -13 -11 -20 -15 -17 -8 5 8 0 11 -12 10 -11 0 -17 -5
-14 -10 3 -5 -11 -7 -31 -4 -20 3 -39 0 -43 -6 -3 -5 -1 -7 5 -3 6 3 13 2 16
-3 3 -5 -10 -7 -29 -5 -20 1 -33 -1 -31 -5 3 -4 -6 -6 -19 -3 -16 3 -25 0 -25
-8 0 -9 -4 -9 -17 1 -9 8 -14 9 -10 3 8 -14 -7 -20 -50 -20 -17 1 -31 -1 -31
-4 1 -19 -4 -23 -12 -10 -7 11 -10 11 -10 2 0 -7 -4 -10 -10 -7 -5 3 -10 1
-10 -4 0 -6 -5 -11 -11 -11 -5 0 -7 6 -3 13 4 6 -2 4 -13 -6 -15 -13 -23 -15
-28 -7 -5 8 -11 6 -20 -6 -7 -11 -19 -15 -29 -11 -11 4 -15 3 -11 -4 4 -6 1
-10 -6 -8 -28 3 -50 -1 -45 -10 3 -4 -6 -7 -19 -5 -17 1 -25 -3 -25 -13 0 -11
-3 -13 -13 -5 -8 7 -18 6 -31 -4 -10 -7 -23 -11 -27 -8 -5 3 -9 1 -9 -5 0 -5
-11 -8 -25 -7 -13 2 -22 0 -20 -5 3 -4 1 -10 -5 -14 -5 -3 -10 -1 -10 5 0 6
-5 8 -10 5 -6 -4 -8 -10 -6 -14 4 -6 -10 -10 -51 -13 -7 -1 -13 -6 -13 -11 0
-5 -7 -6 -15 -3 -9 3 -18 -1 -21 -9 -4 -8 -10 -12 -15 -9 -5 3 -9 0 -9 -7 0
-7 -3 -9 -7 -6 -3 4 -13 1 -21 -6 -11 -8 -13 -8 -9 0 5 8 1 8 -17 0 -17 -8
-21 -14 -13 -20 8 -6 4 -7 -10 -4 -13 3 -28 -1 -34 -9 -7 -8 -18 -13 -26 -10
-8 3 -12 2 -10 -2 3 -4 -2 -14 -11 -22 -14 -13 -15 -12 -9 4 6 15 5 17 -6 8
-8 -7 -18 -8 -22 -4 -5 4 -6 0 -3 -9 4 -9 1 -16 -5 -16 -24 -1 -41 -8 -59 -25
-10 -10 -25 -18 -33 -18 -8 0 -15 -4 -15 -10 0 -5 -6 -7 -14 -4 -7 3 -28 -8
-47 -23 -18 -15 -30 -21 -25 -13 4 8 1 7 -7 -3 -11 -14 -16 -15 -20 -5 -4 9
-6 7 -6 -4 -1 -9 -6 -20 -13 -24 -7 -5 -8 -3 -3 6 4 7 4 11 -1 8 -5 -2 -24
-11 -41 -18 -18 -8 -33 -18 -33 -23 0 -4 -4 -6 -9 -2 -5 3 -16 -1 -24 -9 -8
-8 -26 -18 -40 -21 -14 -4 -28 -14 -31 -22 -4 -8 -13 -13 -21 -9 -8 3 -22 -3
-31 -12 -10 -9 -21 -18 -26 -18 -4 -1 -13 -2 -19 -3 -5 0 -8 -5 -5 -10 3 -5
-1 -12 -10 -15 -10 -4 -13 -2 -9 7 4 6 -2 3 -12 -8 -10 -11 -25 -20 -33 -20
-8 0 -14 -6 -12 -13 1 -6 -1 -11 -5 -11 -21 3 -33 -2 -27 -13 4 -6 3 -8 -4 -4
-6 3 -18 -1 -26 -10 -9 -8 -16 -12 -16 -7 0 4 -7 -1 -15 -11 -8 -11 -15 -16
-15 -11 0 5 -7 0 -15 -12 -10 -14 -21 -20 -32 -16 -10 4 -14 2 -9 -5 3 -6 2
-13 -4 -17 -5 -3 -10 -1 -10 5 0 6 -5 8 -10 5 -6 -4 -8 -10 -5 -14 2 -5 -7
-13 -21 -20 -14 -6 -23 -15 -20 -20 3 -5 -2 -8 -12 -7 -10 0 -16 -5 -14 -13 3
-12 1 -12 -14 0 -10 8 -15 9 -11 2 4 -7 -10 -22 -37 -39 -25 -16 -42 -32 -40
-36 3 -4 -2 -8 -11 -8 -8 0 -18 -7 -21 -15 -4 -8 -10 -12 -15 -9 -5 3 -9 -1
-9 -9 0 -7 -11 -20 -25 -27 -14 -7 -25 -17 -25 -21 0 -5 -8 -6 -17 -2 -10 3
-15 3 -11 -2 8 -8 -28 -45 -44 -45 -5 0 -6 -5 -2 -12 5 -8 2 -9 -9 -5 -9 3
-16 3 -14 -2 4 -13 -84 -91 -95 -85 -7 5 -8 2 -4 -5 5 -8 0 -14 -13 -18 -11
-3 -19 -9 -16 -13 3 -4 -2 -11 -11 -14 -8 -3 -12 -11 -9 -16 4 -6 3 -10 -2 -9
-20 3 -34 -2 -28 -11 3 -5 -1 -10 -10 -10 -9 0 -14 -4 -10 -10 3 -5 -6 -15
-19 -22 -14 -7 -24 -15 -23 -18 3 -10 -51 -59 -57 -53 -3 4 -6 -1 -6 -11 0 -9
-4 -14 -10 -11 -5 3 -10 -1 -10 -9 0 -9 -7 -16 -16 -16 -8 0 -13 -4 -9 -9 3
-5 -4 -12 -14 -16 -12 -4 -18 -12 -14 -21 3 -7 0 -14 -7 -14 -7 0 -23 -11 -36
-25 -13 -14 -21 -25 -18 -25 3 0 -13 -18 -36 -39 -27 -25 -39 -44 -35 -52 5
-8 4 -10 -3 -5 -7 4 -12 2 -12 -3 0 -6 -5 -10 -12 -8 -7 1 -13 -4 -14 -10 -1
-7 -3 -16 -4 -20 -1 -5 -2 -12 -1 -17 1 -5 -5 -3 -14 4 -9 7 -15 9 -14 4 4
-16 -13 -44 -22 -38 -5 3 -9 2 -8 -3 3 -20 -2 -34 -11 -28 -5 3 -10 -1 -10
-10 0 -8 -7 -18 -15 -21 -8 -4 -12 -10 -9 -15 3 -5 -2 -9 -10 -9 -9 0 -15 -6
-13 -12 1 -7 -4 -12 -10 -11 -7 2 -12 0 -12 -5 3 -19 -2 -33 -11 -27 -5 3 -10
1 -10 -6 0 -7 -12 -26 -27 -42 -16 -17 -21 -27 -13 -22 8 4 3 -4 -12 -17 -16
-14 -28 -30 -28 -37 0 -6 -4 -11 -10 -11 -5 0 -6 -8 -3 -17 6 -16 5 -16 -11
-4 -15 13 -17 12 -12 -13 3 -15 1 -24 -5 -21 -5 4 -14 -5 -21 -19 -6 -14 -15
-26 -21 -26 -5 0 -6 -7 -3 -16 3 -8 2 -13 -3 -10 -10 7 -32 -17 -35 -37 -1 -8
-8 -21 -16 -30 -30 -33 -37 -44 -48 -72 -6 -17 -11 -23 -12 -15 -1 8 -5 4 -9
-10 -4 -14 -14 -24 -21 -22 -11 3 -11 0 0 -12 11 -15 7 -20 -12 -17 -4 0 -4
-7 -1 -16 4 -10 2 -14 -4 -10 -13 8 -26 -20 -16 -36 4 -6 0 -8 -10 -4 -9 3
-16 3 -16 -1 4 -22 -2 -42 -11 -37 -10 6 -13 -3 -13 -38 0 -10 -2 -16 -4 -13
-6 6 -33 -19 -33 -29 0 -3 6 -3 13 1 8 5 8 3 -2 -9 -7 -9 -17 -14 -22 -12 -4
3 -6 -3 -4 -14 2 -11 -3 -22 -11 -25 -8 -3 -14 -17 -14 -31 0 -16 -6 -25 -16
-25 -8 0 -13 -4 -9 -9 8 -14 -30 -73 -41 -63 -4 4 -2 -1 5 -10 12 -16 11 -18
-5 -18 -15 0 -16 -2 -5 -9 11 -7 10 -11 -5 -20 -11 -6 -13 -11 -6 -11 10 0 10
-3 0 -14 -7 -8 -16 -12 -20 -10 -3 2 -4 -6 0 -18 4 -16 2 -19 -9 -13 -11 7
-11 5 1 -10 12 -15 12 -17 1 -10 -11 6 -13 4 -8 -9 4 -10 3 -15 -3 -11 -6 3
-10 1 -10 -4 0 -21 -2 -26 -12 -38 -6 -7 -7 -13 -3 -13 4 0 2 -7 -5 -15 -6 -8
-8 -20 -4 -26 5 -8 2 -10 -8 -6 -12 4 -15 0 -13 -19 1 -14 -4 -28 -14 -34 -9
-5 -11 -10 -5 -10 6 0 11 -7 11 -15 0 -8 -4 -12 -8 -9 -4 2 -9 -6 -11 -18 -2
-13 -9 -22 -17 -20 -12 3 -12 0 -1 -12 9 -12 9 -16 1 -16 -7 0 -9 -4 -6 -10 3
-5 2 -10 -4 -10 -5 0 -8 -11 -7 -24 2 -17 -1 -23 -10 -19 -9 3 -12 -2 -9 -17
2 -13 -2 -23 -11 -27 -12 -4 -13 -8 -3 -13 9 -6 6 -16 -12 -41 -12 -18 -16
-29 -8 -24 11 7 12 6 2 -7 -7 -8 -10 -18 -6 -21 3 -4 1 -7 -6 -7 -7 0 -9 -4
-6 -10 3 -5 0 -10 -7 -10 -9 0 -9 -3 2 -10 8 -5 11 -10 5 -10 -17 0 -34 -47
-22 -59 7 -7 5 -12 -6 -17 -9 -3 -14 -10 -11 -15 3 -5 0 -9 -5 -9 -6 0 -11 -5
-11 -11 0 -5 6 -7 13 -3 9 6 9 5 0 -8 -7 -8 -10 -18 -6 -21 3 -4 2 -7 -4 -7
-6 0 -9 -11 -8 -25 2 -14 -1 -23 -6 -19 -5 3 -9 -8 -9 -23 0 -16 -6 -35 -12
-42 -10 -10 -10 -12 -1 -7 8 5 8 -2 -2 -21 -10 -18 -11 -31 -4 -39 7 -8 6 -15
-2 -20 -8 -5 -9 -3 -4 6 5 9 4 11 -4 6 -6 -4 -9 -16 -6 -27 4 -10 2 -19 -3
-19 -5 0 -8 -14 -6 -31 3 -24 0 -30 -11 -26 -9 4 -12 1 -8 -9 3 -7 10 -14 17
-14 6 0 4 -5 -6 -10 -10 -7 -14 -17 -10 -32 4 -15 2 -19 -7 -13 -10 6 -11 3
-1 -15 7 -12 8 -20 2 -16 -5 3 -12 -1 -16 -9 -3 -8 -1 -17 4 -20 6 -4 7 -13 1
-23 -4 -9 -6 -23 -3 -31 3 -9 0 -11 -9 -6 -8 5 -11 5 -7 0 4 -4 3 -14 -4 -22
-9 -11 -7 -12 8 -6 15 5 17 4 8 -8 -9 -12 -13 -34 -17 -86 0 -7 -5 -13 -11
-13 -6 0 -4 -5 4 -10 10 -6 11 -10 3 -10 -7 0 -13 -5 -13 -11 0 -5 5 -7 10 -4
6 3 10 1 10 -4 0 -6 -5 -11 -11 -11 -7 0 -10 -12 -7 -30 3 -16 1 -30 -3 -30
-5 0 -6 -7 -3 -15 4 -9 0 -15 -7 -15 -11 0 -11 -3 1 -10 12 -8 13 -12 2 -19
-17 -11 -17 -21 0 -32 11 -7 11 -9 -1 -9 -11 0 -11 -3 0 -17 12 -14 12 -15 0
-9 -10 7 -12 3 -6 -13 4 -13 2 -21 -6 -21 -9 0 -8 -4 1 -15 8 -10 9 -15 1 -15
-7 0 -8 -8 -1 -26 9 -23 8 -25 -7 -20 -14 6 -16 5 -5 -5 16 -17 16 -42 0 -33
-10 5 -10 4 -1 -6 9 -9 9 -19 2 -33 -9 -15 -8 -18 2 -12 9 6 10 3 5 -11 -12
-30 -14 -64 -4 -70 4 -3 5 -11 1 -17 -11 -18 -11 -57 0 -57 6 0 2 -7 -9 -16
-10 -8 -14 -13 -8 -10 7 3 15 -1 18 -10 3 -8 2 -12 -3 -9 -5 3 -12 1 -16 -5
-3 -5 -1 -10 5 -10 6 0 8 -5 5 -10 -4 -6 -1 -18 6 -26 10 -12 9 -13 -7 -7 -17
6 -18 5 -4 -12 11 -13 12 -19 3 -22 -9 -3 -9 -12 -2 -29 12 -32 11 -37 -2 -28
-8 5 -9 2 -2 -11 6 -10 8 -27 5 -37 -3 -11 1 -24 9 -29 10 -6 10 -9 2 -9 -8 0
-13 -13 -13 -31 0 -20 4 -28 12 -23 7 5 8 3 2 -7 -14 -24 -16 -51 -2 -43 10 6
11 4 1 -7 -16 -16 -17 -33 -2 -23 7 4 6 -2 -1 -17 -10 -18 -10 -24 -1 -27 9
-3 9 -7 0 -18 -8 -10 -7 -17 5 -29 18 -18 21 -29 6 -20 -6 3 -10 -3 -10 -15 0
-14 4 -19 13 -15 6 4 3 -1 -7 -9 -11 -9 -15 -16 -10 -16 6 0 11 -6 11 -12 1
-7 2 -32 4 -55 1 -27 6 -40 13 -36 6 4 4 -2 -4 -12 -9 -11 -10 -16 -2 -11 6 4
12 2 12 -3 0 -6 -6 -11 -12 -11 -9 0 -10 -3 -2 -8 16 -10 24 -62 10 -62 -7 0
-6 -3 2 -8 7 -5 10 -16 6 -25 -4 -10 -1 -17 6 -17 7 0 10 -8 7 -20 -3 -11 0
-20 5 -20 7 0 6 -5 -1 -14 -10 -11 -8 -17 6 -25 10 -6 12 -11 6 -11 -7 0 -13
-5 -13 -11 0 -5 6 -7 13 -3 9 6 9 4 -1 -8 -7 -9 -9 -19 -4 -22 14 -9 20 -54 9
-65 -7 -7 -6 -12 4 -16 9 -3 16 -21 17 -42 2 -21 8 -41 15 -45 9 -6 8 -10 -3
-18 -12 -7 -12 -10 -1 -10 7 0 11 -6 8 -15 -4 -8 -2 -17 3 -20 5 -3 7 -12 3
-20 -3 -8 0 -15 7 -15 7 0 10 -8 7 -19 -3 -11 2 -30 11 -42 8 -12 10 -19 4
-15 -7 4 -12 3 -12 -3 0 -5 5 -11 12 -13 6 -2 11 -18 10 -36 0 -18 4 -32 10
-32 6 0 8 -9 5 -20 -3 -12 1 -24 11 -30 10 -5 12 -10 6 -10 -6 0 -11 -6 -11
-14 0 -8 6 -12 12 -9 9 3 11 -4 7 -22 -2 -15 0 -30 7 -34 6 -4 12 -19 13 -34
1 -15 6 -27 11 -27 5 0 7 -9 4 -20 -3 -11 -1 -20 4 -20 4 0 5 -7 2 -17 -5 -12
-3 -14 7 -8 10 6 12 4 7 -8 -3 -9 -2 -19 4 -22 5 -4 7 -11 4 -16 -4 -5 0 -9 7
-9 9 0 9 -3 -2 -10 -10 -6 -11 -10 -2 -10 6 0 12 -9 12 -20 0 -11 5 -20 11
-20 5 0 8 -4 5 -9 -4 -5 0 -12 6 -14 10 -4 10 -6 1 -6 -7 -1 -10 -8 -7 -16 4
-8 10 -12 15 -9 8 4 13 -24 12 -63 -1 -7 3 -10 8 -7 5 3 9 -4 9 -15 0 -10 4
-21 10 -23 5 -1 11 -15 12 -30 1 -16 6 -28 10 -28 4 0 8 -9 8 -20 0 -11 5 -20
11 -20 6 0 9 -9 6 -19 -3 -12 1 -22 9 -25 8 -3 14 -17 14 -31 0 -14 5 -25 10
-25 6 0 10 -7 10 -16 0 -8 4 -13 9 -9 6 3 8 -4 6 -15 -2 -12 5 -29 17 -40 16
-14 18 -20 7 -20 -11 -1 -10 -4 3 -14 10 -7 15 -16 11 -19 -3 -4 -1 -7 5 -7 6
0 9 -6 6 -13 -2 -7 5 -22 16 -34 11 -12 20 -29 20 -36 0 -23 26 -67 35 -59 4
4 6 -8 3 -25 -4 -27 -2 -30 9 -21 8 6 13 7 11 2 -4 -14 23 -74 34 -74 5 0 6
-4 3 -10 -3 -5 -2 -10 4 -10 6 0 7 -7 4 -17 -4 -11 -3 -14 5 -9 8 5 12 0 12
-13 0 -12 7 -21 15 -21 8 0 12 -6 9 -13 -2 -7 5 -23 16 -35 12 -12 15 -22 9
-22 -7 0 -2 -8 9 -19 12 -10 22 -26 22 -35 0 -9 5 -16 10 -16 6 0 10 -6 10
-14 0 -7 10 -21 23 -30 12 -9 16 -14 10 -11 -7 3 -13 2 -13 -4 0 -5 10 -13 21
-16 16 -5 18 -9 9 -15 -9 -6 -6 -10 10 -15 15 -5 19 -10 10 -15 -8 -5 -7 -9 5
-14 10 -3 15 -12 11 -21 -3 -8 -2 -14 2 -14 28 4 34 -1 21 -18 -12 -14 -12
-16 0 -8 11 6 13 4 8 -8 -4 -11 -2 -14 9 -10 12 4 19 -7 15 -29 0 -4 7 -4 16
-1 11 4 14 3 9 -5 -4 -7 0 -22 8 -34 9 -12 16 -18 16 -13 0 6 5 2 11 -8 5 -9
7 -22 3 -29 -4 -6 -3 -8 3 -5 5 3 17 -3 26 -14 9 -10 14 -19 10 -19 -3 0 4 -8
15 -19 12 -10 22 -27 22 -37 0 -16 2 -17 10 -4 8 13 10 12 10 -3 0 -11 4 -15
12 -11 7 4 8 3 4 -4 -4 -7 -2 -20 3 -29 6 -10 11 -14 11 -10 0 11 30 -19 30
-31 0 -5 11 -18 25 -28 14 -10 23 -25 20 -32 -3 -7 0 -10 5 -7 6 3 10 1 10 -5
0 -6 5 -8 13 -4 7 5 6 0 -3 -11 -10 -13 -11 -16 -2 -11 14 9 56 -27 45 -38 -4
-3 1 -6 11 -6 9 0 15 -4 12 -9 -3 -5 1 -11 9 -15 8 -3 15 -13 15 -23 0 -15 2
-16 10 -3 7 11 10 11 10 2 0 -7 13 -26 30 -42 16 -16 30 -35 30 -42 0 -9 3 -9
10 2 8 12 10 11 10 -7 0 -12 5 -25 12 -29 7 -5 8 -3 3 7 -5 8 10 -4 32 -26 22
-22 39 -43 36 -47 -2 -5 3 -8 12 -8 9 0 13 -4 10 -10 -3 -5 1 -10 10 -10 9 0
24 -13 33 -30 9 -16 22 -30 29 -30 6 0 15 -9 18 -20 4 -11 11 -18 16 -15 9 6
14 -9 9 -30 -1 -5 1 -7 5 -3 9 9 61 -43 57 -57 -2 -5 0 -7 4 -2 10 10 54 -32
54 -51 0 -9 3 -13 6 -9 6 6 34 -16 34 -27 0 -4 23 -29 50 -56 28 -27 50 -55
50 -62 0 -6 3 -9 6 -5 8 7 34 -17 34 -32 0 -6 7 -11 16 -11 10 0 14 -5 10 -16
-3 -8 -2 -12 4 -9 6 3 10 1 10 -5 0 -6 5 -8 10 -5 6 3 10 0 10 -8 0 -8 7 -18
16 -21 8 -3 12 -11 8 -17 -4 -8 -3 -9 4 -5 7 4 12 2 12 -4 0 -6 5 -8 10 -5 6
3 10 0 10 -7 0 -7 11 -22 25 -32 13 -10 22 -24 18 -30 -3 -6 -3 -8 1 -4 9 8
55 -34 49 -44 -2 -5 3 -8 11 -8 9 0 16 -7 16 -16 0 -8 3 -13 8 -11 4 3 13 -1
20 -9 7 -8 9 -14 5 -15 -4 0 2 -4 15 -9 12 -5 27 -21 32 -35 5 -14 16 -25 25
-25 8 0 15 -4 15 -10 0 -13 37 -50 51 -50 5 0 7 -5 3 -12 -5 -8 -2 -9 10 -5
10 4 15 3 11 -3 -8 -13 17 -38 33 -32 7 2 10 -2 6 -12 -3 -9 -1 -16 6 -16 6 0
8 -5 4 -12 -5 -8 0 -7 11 2 10 8 16 10 12 3 -6 -10 84 -113 99 -113 11 0 33
-28 27 -34 -4 -3 1 -6 11 -6 9 0 14 -4 11 -10 -3 -5 1 -10 10 -10 9 0 13 -5
10 -10 -3 -6 -1 -10 6 -10 13 0 49 -38 49 -51 0 -5 8 -5 18 -2 15 6 15 5 3
-11 -12 -15 -12 -17 0 -14 8 2 13 -3 11 -10 -1 -6 2 -11 6 -10 5 2 32 -21 60
-50 29 -28 56 -52 61 -52 5 0 15 -8 22 -18 12 -15 12 -16 -1 -7 -10 6 -9 4 2
-6 9 -9 14 -20 10 -24 -4 -5 -2 -5 4 -2 12 7 60 -42 56 -56 -1 -5 2 -6 8 -2 5
3 10 1 10 -5 0 -6 5 -8 10 -5 6 3 10 -1 10 -9 0 -9 5 -16 11 -16 6 0 9 -7 6
-14 -4 -10 -1 -13 9 -9 7 3 14 0 14 -7 0 -6 5 -8 10 -5 6 3 10 -1 10 -9 0 -8
9 -18 20 -21 11 -3 20 -13 20 -21 0 -8 4 -14 8 -14 5 0 15 -11 22 -25 11 -21
16 -23 29 -12 11 9 13 9 8 0 -4 -7 3 -24 18 -40 14 -15 32 -37 40 -48 l15 -20
-5 20 c-5 16 -3 16 6 -2 7 -13 19 -23 28 -23 14 0 14 -2 1 -10 -13 -8 -13 -10
2 -10 9 0 20 -9 23 -21 4 -11 9 -18 13 -15 3 3 12 -3 20 -15 8 -11 20 -18 28
-15 8 3 13 2 13 -2 -2 -15 14 -52 23 -52 14 0 68 -62 62 -72 -3 -5 -2 -8 3 -7
20 3 34 -2 28 -11 -3 -5 1 -10 10 -10 9 0 13 -4 10 -10 -3 -5 1 -10 10 -10 12
0 15 -5 11 -17 -4 -10 -4 -14 0 -11 3 4 17 -4 31 -18 13 -13 29 -24 36 -24 8
0 7 -4 -2 -9 -12 -8 -9 -11 12 -16 24 -7 32 -16 28 -37 0 -5 6 -8 14 -8 8 0
15 -6 15 -14 0 -8 9 -18 20 -21 11 -4 18 -11 15 -16 -4 -5 1 -12 9 -15 9 -3
16 -12 16 -20 0 -8 7 -14 16 -14 8 0 13 -3 11 -7 -6 -10 19 -34 27 -26 3 4 6
-1 6 -10 0 -10 8 -17 17 -17 9 0 14 -3 10 -6 -7 -8 17 -34 32 -34 5 0 13 -9
16 -20 3 -11 11 -20 16 -20 6 0 7 -5 3 -12 -4 -6 -3 -8 3 -5 6 4 19 0 29 -8
19 -15 18 -15 -1 -10 -11 3 -5 -2 12 -11 18 -10 35 -26 39 -36 3 -10 12 -18
20 -18 13 0 18 -12 15 -32 0 -4 6 -5 14 -2 10 4 15 0 15 -11 0 -9 5 -13 10
-10 6 3 10 -1 10 -10 0 -9 4 -14 8 -11 5 3 15 -6 22 -19 7 -13 17 -22 22 -19
4 3 8 -2 8 -10 0 -8 4 -18 10 -21 6 -3 7 1 4 12 -3 10 2 6 10 -8 8 -15 23 -29
31 -33 9 -3 13 -10 10 -16 -3 -5 1 -10 9 -10 15 0 21 -12 17 -34 -1 -5 5 -4
13 4 13 10 16 10 16 -3 0 -8 7 -18 16 -21 8 -3 12 -10 9 -16 -3 -5 0 -10 8
-10 8 0 18 -7 21 -16 3 -8 10 -13 15 -10 5 3 12 -1 15 -10 4 -10 2 -13 -7 -9
-6 4 -1 -3 13 -14 14 -11 31 -21 38 -21 6 0 12 -7 12 -16 0 -18 25 -46 34 -37
3 4 6 -1 6 -10 0 -10 7 -17 16 -17 8 0 12 -5 9 -10 -3 -5 -2 -10 3 -10 5 0 12
-9 15 -20 3 -11 13 -20 22 -20 9 0 13 -4 10 -10 -3 -5 1 -10 10 -10 9 0 13 -5
10 -10 -3 -5 1 -10 9 -10 9 0 16 -7 16 -15 0 -8 9 -19 20 -25 11 -6 20 -18 20
-28 0 -15 2 -15 10 -2 8 13 10 12 10 -3 0 -11 4 -15 12 -11 7 5 9 0 6 -14 -3
-12 -3 -21 1 -20 3 0 15 0 26 -1 17 -1 18 -3 5 -11 -13 -9 -13 -10 0 -10 17 0
50 -34 50 -50 0 -6 7 -10 16 -10 8 0 12 -4 9 -10 -3 -5 1 -10 9 -10 10 0 13
-6 9 -17 -4 -11 -3 -14 5 -9 8 4 16 -2 21 -16 6 -13 10 -17 10 -10 1 7 6 10
11 7 8 -5 7 -12 -2 -23 -8 -10 -9 -13 -1 -9 6 4 14 3 18 -3 4 -6 11 -7 17 -4
7 5 9 1 5 -9 -4 -10 0 -18 12 -22 11 -3 21 -15 24 -26 3 -12 10 -18 16 -14 7
4 8 0 4 -11 -4 -12 -3 -15 5 -10 7 4 12 1 12 -8 0 -9 7 -16 16 -16 8 0 13 -3
11 -8 -6 -8 19 -33 26 -26 2 3 8 -7 11 -21 4 -14 11 -23 16 -20 6 4 13 -1 16
-9 3 -9 13 -16 21 -16 9 0 11 -5 7 -12 -4 -7 2 -5 13 5 11 9 23 14 26 10 4 -3
7 -1 7 5 0 10 38 28 53 24 4 -1 7 5 7 14 0 10 5 14 16 10 9 -3 12 -2 8 5 -7
11 28 49 46 49 6 0 8 5 5 10 -3 6 -1 10 4 10 6 0 11 7 11 15 0 9 6 12 17 8 10
-4 14 -2 10 4 -8 13 27 46 37 36 4 -4 4 0 0 10 -3 10 -1 17 6 17 6 0 8 5 4 13
-5 7 0 6 11 -3 10 -8 16 -10 12 -3 -4 6 0 18 8 26 8 9 15 21 15 27 0 6 4 9 9
6 5 -3 12 1 15 10 3 8 10 12 16 9 6 -4 7 1 3 11 -4 12 -3 15 5 10 7 -4 12 -1
12 8 0 9 7 16 15 16 8 0 15 5 15 10 0 6 6 9 13 8 6 -2 11 3 9 10 -2 10 8 15
28 14 3 0 11 6 18 14 7 8 10 14 7 14 -3 0 -1 9 5 21 7 12 18 18 26 15 8 -3 13
-2 10 3 -3 5 8 19 24 31 17 13 30 29 30 37 0 8 4 12 9 8 5 -3 12 4 16 15 4 11
10 18 15 15 11 -7 32 30 22 40 -4 3 -2 6 3 5 19 -4 38 0 32 6 -3 4 21 32 55
64 35 33 58 62 54 69 -5 7 -1 9 11 4 10 -3 15 -2 10 2 -9 10 43 66 55 59 4 -3
8 2 8 10 0 9 8 16 18 16 14 0 15 2 2 10 -13 8 -12 10 3 10 9 0 17 5 17 10 0 6
8 10 18 10 13 0 14 2 4 9 -10 6 -8 10 8 14 12 3 19 10 16 16 -4 5 3 12 14 16
11 4 18 10 15 15 -3 4 2 11 11 14 8 3 12 10 9 16 -4 6 1 7 12 3 10 -3 15 -3
11 1 -9 11 23 46 35 39 6 -3 7 -1 3 5 -4 8 0 12 11 12 15 0 16 2 3 10 -10 6
-11 10 -2 10 12 0 50 33 54 48 4 16 46 50 54 44 4 -4 4 1 1 10 -3 10 -1 20 5
24 7 4 8 3 4 -4 -4 -7 -2 -12 3 -12 10 0 15 14 12 33 0 4 4 7 10 7 16 0 39 26
31 35 -4 5 1 5 11 2 13 -5 17 -2 15 11 -2 10 2 16 11 14 8 -2 11 3 8 12 -4 11
0 14 14 11 18 -4 19 -2 8 13 -7 9 -10 14 -5 10 7 -6 96 74 96 87 0 10 72 75
82 75 5 0 7 4 4 9 -3 5 1 12 10 15 8 3 12 11 8 17 -4 8 -3 9 4 5 7 -4 12 -2
12 3 0 6 8 11 18 11 14 0 15 2 2 10 -12 8 -12 10 -1 10 15 0 61 46 61 61 0 5
4 8 9 7 5 -2 9 1 10 5 1 17 83 87 94 80 7 -3 9 -3 5 2 -12 13 23 64 40 57 10
-3 13 -1 8 6 -3 6 3 16 14 22 11 6 20 18 20 28 0 15 2 15 10 2 8 -13 10 -12
10 3 0 9 5 17 11 17 5 0 7 6 3 13 -5 7 0 6 11 -3 13 -10 16 -11 11 -2 -5 9 -1
19 13 28 12 8 21 22 21 30 0 8 9 14 20 14 11 0 20 5 20 11 0 7 17 28 38 47 20
20 36 40 34 45 -2 5 4 7 13 3 9 -3 14 -2 11 3 -3 5 7 17 23 28 16 10 30 23 31
28 1 6 7 9 12 7 6 -2 8 4 5 13 -6 14 10 21 36 16 5 -1 6 3 3 8 -6 9 41 61 56
61 5 0 6 5 3 10 -6 9 8 14 28 11 4 0 6 2 6 6 -3 18 1 36 7 30 8 -7 34 17 34
32 0 6 7 11 16 11 10 0 14 6 11 14 -4 10 -1 13 9 9 7 -3 14 0 14 6 0 6 7 11
15 11 8 0 14 4 13 8 -4 12 49 62 58 54 4 -4 5 0 2 8 -6 16 16 43 26 33 3 -4 6
-1 6 6 0 7 5 9 10 6 6 -4 9 -1 8 7 -2 7 2 12 9 11 7 -2 10 4 7 12 -4 10 0 15
11 15 11 0 15 5 12 14 -4 10 -1 13 9 9 9 -3 14 1 14 12 0 9 5 13 10 10 6 -3
10 1 10 9 0 8 5 18 12 22 7 5 8 3 3 -6 -5 -9 -4 -11 3 -6 7 4 12 14 12 23 0 9
3 13 7 10 3 -4 17 9 31 29 13 19 26 33 29 30 4 -3 11 4 18 17 6 12 17 21 24
19 7 -1 10 2 6 8 -3 5 2 10 12 10 15 0 16 2 3 10 -10 7 -11 10 -2 11 6 1 17 2
24 3 6 0 13 8 15 16 4 13 3 13 -6 0 -7 -10 -11 -11 -11 -3 0 14 35 35 43 26 4
-3 4 4 2 17 -4 18 -2 20 11 9 12 -10 15 -10 12 2 -2 8 3 13 10 11 6 -1 11 1
11 5 -3 21 3 32 21 38 11 4 18 10 15 15 -3 5 4 11 15 15 11 4 18 11 14 16 -3
6 4 13 16 16 13 3 19 11 16 20 -3 8 -1 11 4 8 6 -4 14 4 19 17 6 13 10 19 10
15 1 -4 15 7 33 25 18 18 36 32 41 30 5 -1 6 2 2 8 -3 5 -1 10 5 10 6 0 8 5 5
10 -3 6 -1 10 5 10 18 0 42 29 34 41 -4 7 -3 9 3 6 6 -4 19 1 29 9 10 9 12 12
4 8 -13 -7 -13 -5 -1 9 7 9 17 14 22 11 5 -3 9 0 9 7 0 16 115 129 132 129 10
0 9 3 -2 10 -13 8 -12 10 5 11 11 1 23 1 28 0 4 0 6 2 6 6 -4 25 4 41 22 46
12 3 18 10 15 16 -4 6 2 8 15 6 17 -3 19 -1 9 10 -7 9 -8 15 0 20 5 3 10 1 10
-5 0 -18 20 0 30 26 5 13 16 24 25 24 8 0 15 7 15 15 0 8 8 15 18 15 14 0 15
2 2 10 -13 8 -12 10 3 10 9 0 17 5 17 10 0 6 3 9 8 9 19 -3 25 2 12 11 -12 8
-12 10 -1 10 7 0 24 12 37 26 13 14 29 22 34 19 6 -3 7 1 4 9 -4 10 -1 16 9
16 9 0 19 5 23 12 5 7 2 8 -7 3 -8 -4 -5 1 6 12 11 11 23 19 26 17 8 -4 44 48
41 58 -1 4 6 4 15 1 11 -4 14 -3 9 5 -4 7 -2 12 3 12 6 0 11 7 11 16 0 8 5 12
10 9 6 -3 10 1 10 9 0 9 7 16 17 16 9 0 13 3 10 6 -4 4 1 14 11 23 10 9 21 24
25 34 4 11 12 15 18 11 7 -4 9 -3 5 4 -3 6 7 24 24 40 16 17 30 35 30 42 0 6
7 13 15 16 8 4 12 10 9 15 -3 5 2 9 11 9 9 0 13 5 10 10 -3 6 -1 10 5 10 6 0
8 5 5 10 -3 6 1 10 10 10 9 0 14 4 11 9 -3 5 1 11 9 15 8 3 15 13 15 21 0 10
5 13 12 9 7 -5 9 -2 5 9 -3 9 0 18 9 21 8 3 14 12 14 19 0 8 10 22 23 31 12 9
15 14 7 10 -9 -4 -7 1 5 13 11 11 24 18 29 15 5 -3 7 2 3 11 -4 10 -1 17 5 17
6 0 9 3 5 6 -3 3 3 14 14 25 11 11 17 25 13 31 -5 8 -2 9 10 5 9 -4 14 -3 11
2 -3 5 -1 12 5 16 6 4 8 10 5 15 -3 4 2 11 11 14 9 4 14 13 10 22 -3 8 -2 12
3 9 5 -3 12 4 16 15 3 11 11 20 16 20 6 0 8 4 5 9 -3 5 1 11 9 15 8 3 15 15
15 26 0 12 5 18 10 15 6 -3 10 4 10 15 0 16 4 20 16 16 14 -5 15 -4 4 9 -7 9
-8 15 -2 15 5 0 15 14 21 30 5 17 17 33 25 36 9 3 14 10 11 14 -8 12 6 41 16
34 5 -3 9 4 9 16 0 11 7 23 15 26 8 4 12 10 9 15 -3 5 4 22 15 38 11 15 18 31
14 35 -3 3 -1 6 6 6 8 0 11 6 7 16 -3 8 -2 12 4 9 6 -3 10 1 10 10 0 9 5 13
11 9 7 -4 10 -1 7 7 -3 8 2 23 11 33 9 11 11 16 3 12 -11 -7 -11 -4 -1 12 7
12 17 19 21 16 4 -3 5 3 1 12 -4 12 -3 15 5 10 8 -5 10 -2 6 8 -3 9 -1 16 6
16 6 0 8 5 5 10 -3 6 -1 10 6 10 8 0 7 5 -2 17 -8 9 -9 14 -4 11 12 -7 30 12
30 32 0 8 5 14 11 13 7 -1 9 8 6 24 -3 15 -1 23 4 20 6 -3 11 6 12 21 1 14 6
28 10 31 12 8 26 44 23 60 -1 7 2 10 8 6 7 -3 8 0 5 9 -4 9 -1 16 6 16 8 0 11
9 8 25 -3 14 -1 23 6 22 6 -1 11 5 11 13 0 8 6 19 13 23 10 7 10 12 1 23 -9
11 -8 15 5 20 14 5 14 9 4 22 -10 12 -10 14 0 8 7 -4 12 -2 12 4 0 6 4 9 9 6
4 -3 6 6 3 21 -3 17 -1 24 6 19 7 -4 10 1 7 13 -2 11 3 25 12 32 13 12 13 14
-4 20 -16 7 -16 8 0 8 10 1 17 9 17 20 0 10 7 24 15 31 10 9 12 17 5 30 -7 13
-6 20 6 24 10 4 13 13 9 26 -4 13 -2 20 6 20 7 0 9 3 6 7 -4 3 -1 13 6 21 10
13 9 15 -3 8 -8 -4 -6 0 4 8 11 9 15 16 8 16 -6 0 -9 7 -6 15 4 8 11 12 18 8
6 -4 4 2 -4 12 -12 15 -12 17 -1 10 11 -6 13 -4 8 7 -3 9 1 27 8 42 8 15 10
24 5 21 -6 -3 -7 1 -4 9 3 9 10 16 15 16 5 0 4 12 -1 26 -7 16 -7 23 0 19 6
-3 10 -1 10 5 0 6 5 8 13 4 9 -6 9 -4 -1 8 -10 12 -10 18 -1 23 8 6 8 9 -1 15
-8 5 -7 11 4 23 9 9 17 34 18 56 1 22 4 38 8 36 4 -2 7 2 7 10 0 8 -5 15 -11
15 -6 0 -3 5 8 11 15 9 16 13 5 20 -11 7 -9 9 6 9 11 0 16 4 10 8 -14 10 -17
32 -4 32 5 0 8 4 4 9 -3 5 -1 12 5 16 7 4 7 12 0 26 -10 18 -6 23 13 20 4 -1
3 7 -3 18 -13 25 -13 41 0 21 7 -11 10 -5 11 25 1 22 1 46 0 54 -2 7 2 11 7 7
5 -3 9 1 9 9 0 8 -5 11 -11 8 -6 -4 -5 1 3 10 7 9 11 26 8 37 -3 11 0 20 6 20
8 0 7 3 -1 9 -11 6 -10 10 3 15 13 4 14 10 7 19 -7 8 -7 18 -2 27 6 9 4 20 -3
29 -10 12 -9 13 2 7 10 -7 12 -3 6 13 -4 14 -2 21 6 21 9 0 10 3 2 11 -14 14
-5 51 11 43 6 -3 2 2 -8 10 -11 9 -15 16 -8 16 6 0 9 7 6 15 -4 9 0 15 7 15
11 0 11 3 -1 11 -11 8 -12 12 -2 16 6 2 9 10 5 16 -10 16 -12 57 -2 52 4 -3 6
24 5 60 0 38 3 65 9 65 7 0 7 3 0 8 -12 8 -14 192 -2 192 5 0 5 5 1 12 -4 6
-7 40 -6 75 1 47 -2 62 -11 56 -7 -4 -6 1 2 11 12 14 12 19 2 26 -11 6 -11 9
0 14 11 5 11 7 2 12 -7 3 -13 10 -13 15 0 6 4 8 8 5 11 -6 9 35 -2 53 -5 8 -4
16 5 22 10 6 11 9 2 9 -9 0 -13 16 -13 44 0 26 -5 46 -12 49 -10 4 -10 6 0 6
6 1 12 10 12 21 0 11 -6 20 -12 20 -9 0 -8 4 2 10 10 6 11 10 3 10 -7 0 -13 9
-13 19 0 11 6 22 13 24 10 4 10 6 0 6 -7 1 -13 14 -13 29 0 15 -6 34 -12 41
-9 10 -9 12 -1 7 8 -4 11 1 10 14 -1 11 -8 20 -17 20 -9 0 -11 3 -5 8 6 4 9
16 9 27 -1 11 -2 28 -3 38 -1 11 -6 15 -13 11 -7 -4 -8 -3 -4 5 4 6 2 19 -6
28 -9 12 -9 15 0 9 7 -4 12 -2 12 6 0 8 -6 20 -12 27 -10 11 -10 13 0 7 6 -4
12 -2 12 3 0 6 -4 11 -9 11 -5 0 -7 9 -4 20 3 12 0 20 -7 20 -9 0 -10 3 -1 13
7 9 7 17 1 23 -6 6 -11 22 -12 37 -1 15 -6 27 -10 27 -4 0 -8 7 -8 16 0 9 5
12 12 8 6 -4 4 3 -4 15 -9 12 -14 31 -11 42 3 11 0 19 -6 19 -7 0 -11 8 -9 18
2 11 -4 27 -12 37 -8 11 -10 16 -4 12 7 -4 14 0 18 8 3 8 0 17 -6 21 -7 4 -8
3 -4 -4 4 -7 2 -12 -4 -12 -8 0 -11 14 -8 40 3 29 0 40 -10 40 -9 0 -12 7 -9
20 3 11 0 20 -5 20 -6 0 -5 6 2 15 10 12 9 16 -4 21 -10 4 -16 18 -16 35 0 16
-5 29 -11 29 -5 0 -8 4 -4 9 3 5 1 13 -5 16 -8 5 -8 11 0 20 8 9 6 14 -6 19
-8 3 -14 12 -11 19 2 6 -3 21 -12 31 -9 11 -10 16 -3 12 6 -4 12 -2 12 3 0 6
-5 11 -11 11 -6 0 -9 6 -6 14 3 8 -3 22 -13 31 -10 9 -17 22 -14 28 5 15 -20
89 -28 82 -3 -3 -4 6 -3 20 2 14 -1 25 -6 25 -6 0 -8 4 -5 9 4 5 2 11 -4 13
-6 2 -11 17 -13 35 -1 17 -4 30 -7 28 -4 -2 -12 5 -19 17 -7 11 -8 17 -2 13 6
-3 11 -1 11 4 0 6 -4 11 -9 11 -5 0 -11 14 -15 31 -3 17 -10 28 -15 25 -5 -3
-7 3 -4 14 3 12 0 20 -6 20 -7 0 -9 5 -6 10 3 6 -1 13 -9 16 -9 3 -16 10 -16
16 0 5 5 6 10 3 6 -3 10 -1 10 4 0 6 -6 11 -14 11 -9 0 -12 7 -9 19 3 10 0 22
-6 25 -7 5 -9 0 -5 -11 5 -14 4 -15 -4 -4 -5 7 -9 21 -7 30 1 9 -2 19 -7 22
-5 3 -10 15 -11 26 0 12 -6 19 -12 16 -7 -2 -11 6 -11 19 1 16 -4 22 -14 20
-8 -2 -12 0 -8 4 4 4 3 13 -3 21 -9 10 -8 13 2 13 9 1 8 4 -4 11 -9 6 -15 14
-12 20 4 5 1 9 -4 9 -6 0 -11 9 -11 21 0 13 -4 18 -12 13 -7 -5 -9 -2 -5 9 3
9 0 18 -9 21 -8 3 -14 18 -14 33 0 22 -2 25 -10 13 -8 -12 -10 -9 -10 13 0 18
-4 26 -11 21 -8 -4 -9 1 -4 16 5 16 4 20 -4 16 -7 -5 -16 4 -22 23 -6 17 -15
28 -20 25 -5 -3 -6 2 -3 10 3 9 2 16 -3 16 -5 0 -15 16 -23 35 -8 19 -18 35
-23 35 -5 0 -7 9 -4 21 5 17 3 18 -11 7 -9 -7 -13 -8 -9 -2 4 7 0 17 -8 24 -8
7 -15 19 -15 27 0 9 -5 11 -12 7 -8 -5 -7 0 2 11 9 11 10 16 3 11 -9 -5 -13 0
-13 16 0 18 -2 20 -10 8 -8 -12 -10 -11 -10 5 0 11 -9 27 -20 35 -21 15 -28
36 -8 24 7 -5 8 -3 4 5 -5 7 -15 10 -24 6 -9 -3 -13 -3 -10 0 10 10 -32 86
-43 79 -5 -3 -9 -2 -8 3 4 22 -3 33 -18 34 -10 0 -13 3 -6 6 10 3 10 7 0 18
-7 7 -15 11 -19 8 -5 -2 -8 3 -8 11 0 9 -4 16 -10 16 -5 0 -10 7 -10 15 0 8
-4 15 -10 15 -5 0 -10 7 -10 16 0 8 -4 12 -10 9 -6 -3 -10 4 -10 17 0 18 -2
20 -10 8 -8 -12 -10 -10 -10 8 0 13 -4 20 -10 17 -5 -3 -10 3 -10 15 0 12 -4
18 -10 15 -5 -3 -10 0 -10 8 0 8 -13 25 -29 38 -16 13 -27 27 -25 31 3 4 -3 8
-12 8 -10 0 -14 3 -11 6 3 4 -5 15 -18 26 -14 11 -25 25 -25 33 0 7 -11 20
-25 29 -14 9 -23 21 -20 26 3 5 -4 11 -15 15 -18 6 -24 17 -21 38 0 4 -5 7
-12 7 -6 0 -23 12 -37 27 -14 15 -18 23 -10 19 8 -4 6 -1 -4 8 -10 8 -23 17
-28 18 -5 2 -10 13 -11 25 -1 18 -4 20 -16 10 -10 -8 -13 -8 -8 -1 4 7 0 15
-9 18 -8 3 -12 10 -9 16 4 6 -1 7 -11 3 -12 -4 -15 -3 -10 5 4 7 2 12 -4 12
-6 0 -8 5 -5 10 3 6 -1 10 -9 10 -9 0 -16 7 -16 15 0 9 -6 12 -17 8 -11 -4
-14 -3 -9 5 4 7 2 12 -4 12 -6 0 -9 4 -6 9 3 5 -6 12 -21 16 -19 4 -23 9 -14
14 9 6 7 10 -9 14 -14 4 -19 10 -14 18 4 7 3 10 -3 6 -6 -4 -18 4 -27 18 -9
14 -23 25 -32 25 -8 0 -13 4 -10 9 3 5 -1 12 -10 15 -8 3 -12 10 -9 16 3 5 0
7 -9 4 -9 -3 -20 3 -28 15 -7 12 -16 21 -21 21 -4 0 -18 9 -30 20 -12 11 -35
32 -52 46 -16 14 -23 22 -15 18 9 -4 12 -3 7 2 -5 5 -13 10 -18 10 -5 1 -13 2
-19 3 -5 0 -10 8 -10 16 0 8 -3 14 -7 14 -22 -4 -35 2 -30 14 3 8 -4 14 -16
15 -12 0 -23 6 -25 12 -2 5 -8 8 -13 4 -5 -3 -9 2 -9 10 0 9 -9 16 -21 16 -11
0 -17 5 -14 10 3 6 -1 10 -9 10 -9 0 -16 5 -16 11 0 5 -3 8 -7 6 -11 -6 -43
30 -35 39 4 5 -1 2 -10 -5 -16 -12 -18 -11 -18 3 0 10 -4 14 -10 11 -5 -3 -10
-1 -10 5 0 6 -4 9 -9 5 -6 -3 -13 1 -18 9 -4 8 -12 15 -18 16 -5 1 -9 6 -8 11
2 5 -3 8 -10 6 -6 -1 -11 4 -9 11 1 8 -2 11 -8 7 -6 -3 -8 -12 -4 -18 3 -7 -4
-1 -15 12 -12 13 -21 20 -21 16 0 -4 -8 1 -17 12 -10 10 -14 12 -9 3 5 -8 -3
-3 -18 13 -29 29 -41 35 -31 15 4 -7 0 -5 -9 6 -8 10 -24 24 -34 30 -11 6 -30
17 -42 24 -19 12 -21 12 -16 0 4 -7 -1 -3 -10 10 -9 12 -25 22 -36 22 -10 0
-21 7 -24 15 -4 8 -10 12 -15 9 -5 -3 -9 0 -9 6 0 6 -4 8 -10 5 -5 -3 -10 -1
-10 5 0 6 -4 8 -10 5 -5 -3 -10 -1 -10 5 0 6 -4 9 -9 6 -5 -3 -12 1 -15 10 -4
10 -12 14 -22 10 -12 -5 -15 -2 -10 10 5 14 4 15 -9 4 -14 -12 -19 -7 -16 13
1 5 -3 6 -9 2 -5 -3 -10 -2 -10 4 0 6 -6 8 -14 5 -8 -3 -17 0 -21 5 -3 6 -11
9 -16 6 -5 -4 -9 1 -9 10 0 9 -4 14 -10 10 -10 -6 -50 13 -62 30 -5 6 -8 4 -8
-5 0 -9 -3 -11 -8 -4 -4 5 -22 16 -39 23 -20 8 -30 18 -26 25 5 8 3 8 -8 0
-11 -9 -17 -9 -26 1 -6 7 -9 16 -5 19 3 4 -1 4 -11 0 -10 -3 -17 -1 -17 6 0 6
-4 8 -10 5 -5 -3 -10 -2 -10 3 0 6 -7 13 -16 16 -12 5 -14 3 -8 -7 5 -7 1 -4
-8 6 -10 10 -23 17 -30 15 -7 -3 -19 2 -26 11 -11 13 -12 13 -7 1 4 -8 -3 -4
-14 9 -12 13 -21 18 -21 10 0 -10 -3 -10 -12 -1 -7 7 -20 12 -30 12 -10 0 -18
5 -18 12 0 6 -3 8 -6 5 -4 -3 -16 0 -27 8 -14 10 -26 11 -38 4 -15 -7 -17 -6
-14 12 4 17 2 19 -10 9 -11 -9 -19 -10 -28 -1 -8 6 -17 8 -20 4 -4 -3 -7 -1
-7 6 0 6 -6 11 -12 9 -7 -1 -23 3 -35 10 -13 7 -23 10 -23 6 0 -4 -10 1 -22
12 -12 10 -18 13 -14 7 4 -7 2 -13 -3 -13 -6 0 -11 5 -11 11 0 5 -4 7 -10 4
-5 -3 -10 0 -10 7 0 9 -3 9 -10 -2 -8 -13 -10 -13 -10 1 0 9 -7 20 -16 23 -14
5 -15 4 -4 -9 11 -13 10 -14 -4 -9 -9 3 -16 10 -16 15 0 5 -7 9 -15 9 -8 0
-15 5 -15 11 0 8 -5 8 -15 -1 -11 -9 -15 -9 -15 -1 0 7 -4 10 -9 7 -5 -3 -14
1 -21 9 -10 12 -16 13 -26 4 -11 -9 -14 -8 -14 0 0 7 -4 10 -9 6 -5 -3 -12 -1
-15 4 -4 5 -17 8 -31 6 -14 -1 -25 1 -25 5 0 4 -10 7 -22 6 -13 -1 -26 3 -30
8 -3 5 -19 10 -35 11 -15 2 -37 6 -47 10 -15 7 -17 5 -11 -6 5 -9 1 -7 -11 3
-15 13 -23 15 -32 6 -9 -9 -13 -7 -18 6 -6 16 -8 16 -28 -1 -16 -14 -18 -14
-8 -2 10 14 10 18 -3 23 -8 3 -15 0 -15 -6 0 -7 -5 -6 -15 2 -12 10 -15 10
-15 -1 0 -12 -2 -12 -9 0 -5 7 -14 10 -20 7 -6 -4 -11 -3 -11 2 0 5 -17 9 -37
10 -20 1 -40 7 -45 14 -4 8 -8 8 -8 2 0 -6 -7 -11 -15 -11 -8 0 -11 5 -8 10 3
5 0 7 -8 5 -8 -3 -22 -1 -33 4 -13 7 -16 7 -12 -1 4 -6 3 -11 -3 -11 -5 0 -11
5 -13 12 -2 6 -12 12 -21 14 -9 1 -14 -2 -11 -8 4 -6 -2 -5 -15 1 -11 7 -21 9
-21 5 0 -3 -6 -2 -13 4 -8 7 -18 7 -27 2 -10 -6 -21 -3 -34 8 -11 9 -16 11
-12 5 5 -10 1 -11 -18 -3 -14 5 -26 7 -26 4 0 -4 -7 -1 -15 6 -12 10 -15 10
-15 -1 0 -10 -2 -11 -8 -2 -4 6 -20 10 -34 9 -15 -2 -25 0 -23 5 10 15 -21 16
-39 0 -11 -9 -16 -10 -12 -3 5 8 0 12 -14 12 -12 0 -19 -4 -15 -9 3 -6 -6 -6
-24 -1 -17 5 -69 7 -117 5 -53 -2 -82 0 -73 6 8 5 9 9 3 9 -16 0 -35 -25 -26
-35 4 -5 1 -5 -6 -1 -7 4 -10 12 -7 17 4 5 -3 9 -15 9 -13 0 -19 -4 -14 -12 4
-6 3 -9 -2 -6 -5 4 -26 9 -47 12 -29 5 -37 3 -31 -6 6 -10 4 -11 -7 0 -17 15
-43 16 -33 0 4 -6 3 -9 -2 -6 -5 4 -26 9 -48 12 -36 6 -38 5 -25 -11 10 -13 6
-11 -17 4 -17 12 -35 18 -42 14 -15 -9 -189 -7 -199 2 -3 4 -15 -1 -26 -10
-11 -10 -17 -12 -13 -5 5 8 0 12 -14 12 -13 0 -19 -4 -14 -12 5 -7 3 -8 -5 -4
-7 5 -28 8 -47 8 -19 0 -31 4 -28 9 6 10 5 10 -14 2z m169 -20 c13 -16 12 -17
-3 -4 -17 13 -22 21 -14 21 2 0 10 -8 17 -17z m1089 -11287 c0 -2 -8 -10 -17
-17 -16 -13 -17 -12 -4 4 13 16 21 21 21 13z"/>
<path d="M5219 13203 c-13 -16 -12 -17 4 -4 16 13 21 21 13 21 -2 0 -10 -8
-17 -17z"/>
<path d="M12080 12566 c0 -2 8 -10 18 -17 15 -13 16 -12 3 4 -13 16 -21 21
-21 13z"/>
<path d="M4793 5825 c0 -8 4 -12 9 -9 5 3 6 10 3 15 -9 13 -12 11 -12 -6z"/>
<path d="M4876 5747 c3 -10 9 -15 12 -12 3 3 0 11 -7 18 -10 9 -11 8 -5 -6z"/>
<path d="M5050 5560 c0 -5 5 -10 11 -10 5 0 7 5 4 10 -3 6 -8 10 -11 10 -2 0
-4 -4 -4 -10z"/>
<path d="M5550 5036 c0 -2 7 -7 16 -10 8 -3 12 -2 9 4 -6 10 -25 14 -25 6z"/>
<path d="M9120 3035 c-7 -9 -11 -17 -9 -20 3 -2 10 5 17 15 14 24 10 26 -8 5z"/>
</g>
</svg>
